# xmcd
#
# Track frame offsets: 
#        150
#        22418
#        39171
#        55693
#        70426
#        91724
#        111633
#        121558
#        138062
#        150463
#        173915
#        191979
#        206815
#
# Disc length: 3142 seconds
#
# Revision: 0
# Processed by: cddbd v1.5.2PL0 Copyright (c) Steve Scherf et al.
# Submitted via: ExactAudioCopy v0.99pb5
#
DISCID=b20c440d
DTITLE=Mors Principium Est - Inhumanity
DYEAR=2006
DGENRE=Metal
TTITLE0=Another Creation
TTITLE1=Eternity's Child
TTITLE2=In My Words
TTITLE3=Inhumanity
TTITLE4=D.I.B.
TTITLE5=The Lust Called Knowledge
TTITLE6=Oblivion
TTITLE7=Life in Black
TTITLE8=Last Apprentice
TTITLE9=Into Illusion
TTITLE10=The Lust Called Knowledge (2005 Remix)
TTITLE11=Inhumanity (live)
TTITLE12=Pure (live)
EXTD=
EXTT0=
EXTT1=
EXTT2=
EXTT3=
EXTT4=
EXTT5=
EXTT6=
EXTT7=
EXTT8=
EXTT9=
EXTT10=
EXTT11=
EXTT12=
PLAYORDER=
